<?xml version="1.0" encoding="UTF-8"?>
<svg version="1.1" xmlns="http://www.w3.org/2000/svg" width="40" height="40">
<path d="M0 0 C13.2 0 26.4 0 40 0 C40 13.2 40 26.4 40 40 C26.8 40 13.6 40 0 40 C0 26.8 0 13.6 0 0 Z " fill="#5C413F" transform="translate(0,0)"/>
<path d="M0 0 C0.66 0 1.32 0 2 0 C2 0.66 2 1.32 2 2 C4.31 2 6.62 2 9 2 C9 2.99 9 3.98 9 5 C11.97 5.495 11.97 5.495 15 6 C15.33 7.98 15.66 9.96 16 12 C16.99 12.33 17.98 12.66 19 13 C18.979375 13.94875 18.95875 14.8975 18.9375 15.875 C18.77448174 18.90666283 18.77448174 18.90666283 20 21 C19.34 21 18.68 21 18 21 C18.33 23.31 18.66 25.62 19 28 C18.01 28 17.02 28 16 28 C15.67 29.98 15.34 31.96 15 34 C14.360625 34.103125 13.72125 34.20625 13.0625 34.3125 C12.381875 34.539375 11.70125 34.76625 11 35 C10.67 35.99 10.34 36.98 10 38 C7.03 37.67 4.06 37.34 1 37 C1.66 35.35 2.32 33.7 3 32 C3.66 32 4.32 32 5 32 C5.33 30.02 5.66 28.04 6 26 C7.32 26 8.64 26 10 26 C9.93998496 23.72843079 9.85120032 21.45760726 9.75 19.1875 C9.70359375 17.92292969 9.6571875 16.65835937 9.609375 15.35546875 C9.31440208 11.98433805 9.31440208 11.98433805 7.203125 10.11328125 C4.78579594 8.78985516 4.78579594 8.78985516 1 8 C1 12.62 1 17.24 1 22 C0.34 21.34 -0.32 20.68 -1 20 C-3.10820797 20.3185177 -3.10820797 20.3185177 -5 21 C-5 22.32 -5 23.64 -5 25 C-3.68 25 -2.36 25 -1 25 C-1 25.99 -1 26.98 -1 28 C-3.64 27.67 -6.28 27.34 -9 27 C-9 25.35 -9 23.7 -9 22 C-9.99 21.67 -10.98 21.34 -12 21 C-7.97553517 10.98165138 -7.97553517 10.98165138 -4 8 C-1.8125 7.375 -1.8125 7.375 0 7 C0.33 6.34 0.66 5.68 1 5 C0.360625 4.87625 -0.27875 4.7525 -0.9375 4.625 C-1.618125 4.41875 -2.29875 4.2125 -3 4 C-3.33 3.34 -3.66 2.68 -4 2 C-2.68 2 -1.36 2 0 2 C0 1.34 0 0.68 0 0 Z " fill="#37120B" transform="translate(19,0)"/>
<path d="M0 0 C6.27 0 12.54 0 19 0 C19 13.2 19 26.4 19 40 C12.73 40 6.46 40 0 40 C0 39.34 0 38.68 0 38 C5.75 36.875 5.75 36.875 8 38 C8.33 36.68 8.66 35.36 9 34 C10.32 34 11.64 34 13 34 C13.495 31.03 13.495 31.03 14 28 C14.99 28 15.98 28 17 28 C16.7525 26.329375 16.7525 26.329375 16.5 24.625 C16.06808977 21.49365085 15.98825543 19.18399824 16.1875 16.0625 C15.9719433 12.5417405 15.45948244 12.25452557 13 10 C13 8.68 13 7.36 13 6 C10.03 5.505 10.03 5.505 7 5 C7 4.01 7 3.02 7 2 C6.21625 2.185625 5.4325 2.37125 4.625 2.5625 C2 3 2 3 0 2 C0 1.34 0 0.68 0 0 Z " fill="#DEDDDF" transform="translate(21,0)"/>
<path d="M0 0 C-0.33 0.99 -0.66 1.98 -1 3 C-2.670625 3.309375 -2.670625 3.309375 -4.375 3.625 C-8.05909772 4.56719679 -8.05909772 4.56719679 -9.09375 7.0546875 C-9.82871748 9.3551357 -10.43099975 11.65396821 -11 14 C-11.33 14.66 -11.66 15.32 -12 16 C-11.34 16.33 -10.68 16.66 -10 17 C-10 18.98 -10 20.96 -10 23 C-6.7 23.66 -3.4 24.32 0 25 C0.33 23.68 0.66 22.36 1 21 C2.32 21 3.64 21 5 21 C4.67 22.98 4.34 24.96 4 27 C2.68 27.33 1.36 27.66 0 28 C0 28.66 0 29.32 0 30 C-3.3344633 30.58353108 -5.33542027 30.46121107 -8.14453125 28.51171875 C-14.76280142 22.75203498 -14.76280142 22.75203498 -15.34375 18.4609375 C-15.64067107 12.59674635 -15.60124653 8.85796025 -11.625 4.3125 C-7.6986965 0.41043294 -5.54767116 -0.12060155 0 0 Z " fill="#D1CED0" transform="translate(20,5)"/>
<path d="M0 0 C0.66 0 1.32 0 2 0 C2 0.66 2 1.32 2 2 C2.66 2.33 3.32 2.66 4 3 C3.34 3 2.68 3 2 3 C2 4.32 2 5.64 2 7 C2.66 7.33 3.32 7.66 4 8 C3.01 8 2.02 8 1 8 C1 12.62 1 17.24 1 22 C0.34 21.34 -0.32 20.68 -1 20 C-3.10820797 20.3185177 -3.10820797 20.3185177 -5 21 C-5 22.32 -5 23.64 -5 25 C-3.68 25 -2.36 25 -1 25 C-1 25.99 -1 26.98 -1 28 C-3.64 27.67 -6.28 27.34 -9 27 C-9 25.35 -9 23.7 -9 22 C-9.99 21.67 -10.98 21.34 -12 21 C-7.97553517 10.98165138 -7.97553517 10.98165138 -4 8 C-1.8125 7.375 -1.8125 7.375 0 7 C0.33 6.34 0.66 5.68 1 5 C0.360625 4.87625 -0.27875 4.7525 -0.9375 4.625 C-1.618125 4.41875 -2.29875 4.2125 -3 4 C-3.33 3.34 -3.66 2.68 -4 2 C-2.68 2 -1.36 2 0 2 C0 1.34 0 0.68 0 0 Z " fill="#4C2B28" transform="translate(19,0)"/>
<path d="M0 0 C6.27 0 12.54 0 19 0 C19 0.66 19 1.32 19 2 C17.6078125 2.1546875 17.6078125 2.1546875 16.1875 2.3125 C12.79667432 3.04385456 12.26653158 3.63044426 10 6 C8.68 6 7.36 6 6 6 C5.814375 7.4540625 5.814375 7.4540625 5.625 8.9375 C5.41875 9.948125 5.2125 10.95875 5 12 C4.01 12.495 4.01 12.495 3 13 C2.34227572 16.02934491 2.34227572 16.02934491 2 19 C1.34 19 0.68 19 0 19 C0 12.73 0 6.46 0 0 Z " fill="#DCDADC" transform="translate(0,0)"/>
<path d="M0 0 C0.66 0 1.32 0 2 0 C3.125 4.75 3.125 4.75 2 7 C2.99 7 3.98 7 5 7 C5.33 8.98 5.66 10.96 6 13 C7.65 13.33 9.3 13.66 11 14 C11 14.99 11 15.98 11 17 C11.763125 16.814375 12.52625 16.62875 13.3125 16.4375 C16 16 16 16 19 17 C19 17.66 19 18.32 19 19 C12.73 19 6.46 19 0 19 C0 12.73 0 6.46 0 0 Z " fill="#DFDEE0" transform="translate(0,21)"/>
<path d="M0 0 C0.66 0 1.32 0 2 0 C2 5.94 2 11.88 2 18 C-4.27 18 -10.54 18 -17 18 C-17 17.34 -17 16.68 -17 16 C-11.25 14.875 -11.25 14.875 -9 16 C-8.67 14.68 -8.34 13.36 -8 12 C-6.68 12 -5.36 12 -4 12 C-3.67 10.02 -3.34 8.04 -3 6 C-2.01 6 -1.02 6 0 6 C-0.185625 5.195625 -0.37125 4.39125 -0.5625 3.5625 C-0.706875 2.716875 -0.85125 1.87125 -1 1 C-0.67 0.67 -0.34 0.34 0 0 Z " fill="#E2E1E3" transform="translate(38,22)"/>
<path d="M0 0 C0.99 0 1.98 0 3 0 C3.33 1.98 3.66 3.96 4 6 C4.99 6.33 5.98 6.66 7 7 C6.979375 7.94875 6.95875 8.8975 6.9375 9.875 C6.77448174 12.90666283 6.77448174 12.90666283 8 15 C7.34 15 6.68 15 6 15 C6.33 17.31 6.66 19.62 7 22 C6.01 22 5.02 22 4 22 C3.67 23.98 3.34 25.96 3 28 C2.01 27.67 1.02 27.34 0 27 C0.66 27 1.32 27 2 27 C1.67 26.34 1.34 25.68 1 25 C0.01 25.66 -0.98 26.32 -2 27 C0 23 0 23 1.05078125 21.1328125 C2.66326692 17.50969656 2.47351681 13.88960237 2 10 C1.04605164 7.97762948 0.05464649 5.9717304 -1 4 C-0.6875 1.625 -0.6875 1.625 0 0 Z " fill="#391610" transform="translate(31,6)"/>
<path d="M0 0 C5.44632768 1.36158192 5.44632768 1.36158192 8 4 C8.390625 6.91796875 8.390625 6.91796875 8.25 10.1875 C8.21390625 11.27417969 8.1778125 12.36085938 8.140625 13.48046875 C8.07101563 14.72763672 8.07101563 14.72763672 8 16 C7.34 16 6.68 16 6 16 C5.87625 15.195625 5.7525 14.39125 5.625 13.5625 C5.41875 12.716875 5.2125 11.87125 5 11 C4.34 10.67 3.68 10.34 3 10 C2.67 11.32 2.34 12.64 2 14 C1.34 14 0.68 14 0 14 C0 9.38 0 4.76 0 0 Z " fill="#DDDCDE" transform="translate(21,8)"/>
<path d="M0 0 C0.33 0 0.66 0 1 0 C1 4.62 1 9.24 1 14 C1.66 13.67 2.32 13.34 3 13 C3.33 12.01 3.66 11.02 4 10 C4.99 10.33 5.98 10.66 7 11 C7 12.65 7 14.3 7 16 C7.66 16 8.32 16 9 16 C9.33 15.34 9.66 14.68 10 14 C9.67 15.65 9.34 17.3 9 19 C6.03 18.01 3.06 17.02 0 16 C0 10.72 0 5.44 0 0 Z " fill="#9F9192" transform="translate(20,8)"/>
<path d="M0 0 C0.66 0 1.32 0 2 0 C2 0.66 2 1.32 2 2 C2.66 2.33 3.32 2.66 4 3 C3.34 3 2.68 3 2 3 C2 4.32 2 5.64 2 7 C2.66 7.33 3.32 7.66 4 8 C3.01 8 2.02 8 1 8 C1 10.64 1 13.28 1 16 C0.01 15.67 -0.98 15.34 -2 15 C-2.5625 13.0625 -2.5625 13.0625 -3 11 C-3.66 10.34 -4.32 9.68 -5 9 C-4.195625 8.71125 -3.39125 8.4225 -2.5625 8.125 C0.1326468 7.26737432 0.1326468 7.26737432 1 5 C0.360625 4.87625 -0.27875 4.7525 -0.9375 4.625 C-1.618125 4.41875 -2.29875 4.2125 -3 4 C-3.33 3.34 -3.66 2.68 -4 2 C-2.68 2 -1.36 2 0 2 C0 1.34 0 0.68 0 0 Z " fill="#644A47" transform="translate(19,0)"/>
<path d="M0 0 C2.31 0.33 4.62 0.66 7 1 C5.04297985 2.3046801 3.06417543 3.57742367 1.0625 4.8125 C-3.60420609 8.1458615 -6.1452018 11.59017191 -8 17 C-8.33 17 -8.66 17 -9 17 C-9.33 14.69 -9.66 12.38 -10 10 C-9.01 10 -8.02 10 -7 10 C-6.67 8.02 -6.34 6.04 -6 4 C-4.02 3.67 -2.04 3.34 0 3 C0 2.01 0 1.02 0 0 Z " fill="#3D1914" transform="translate(12,2)"/>
<path d="M0 0 C1.32 0 2.64 0 4 0 C3.67 1.98 3.34 3.96 3 6 C2.360625 6.12375 1.72125 6.2475 1.0625 6.375 C0.381875 6.58125 -0.29875 6.7875 -1 7 C-1.33 7.66 -1.66 8.32 -2 9 C-2 8.01 -2 7.02 -2 6 C-4.31 5.67 -6.62 5.34 -9 5 C-8.67 4.01 -8.34 3.02 -8 2 C-5.69 2.66 -3.38 3.32 -1 4 C-0.67 2.68 -0.34 1.36 0 0 Z " fill="#C8C3C5" transform="translate(21,26)"/>
<path d="M0 0 C2 2 2 2 2.1875 5.375 C2.04410663 8.14727178 1.83710258 10.38405444 1 13 C1.99 12.67 2.98 12.34 4 12 C4 12.66 4 13.32 4 14 C3.01 14 2.02 14 1 14 C0.67 15.98 0.34 17.96 0 20 C-0.99 19.67 -1.98 19.34 -3 19 C-2.34 19 -1.68 19 -1 19 C-1.33 18.34 -1.66 17.68 -2 17 C-2.99 17.66 -3.98 18.32 -5 19 C-3 15 -3 15 -1.96875 13.21875 C-0.78814271 10.51477846 -0.58477805 8.18689272 -0.375 5.25 C-0.26285156 3.77273437 -0.26285156 3.77273437 -0.1484375 2.265625 C-0.09945312 1.51796875 -0.05046875 0.7703125 0 0 Z " fill="#725C5B" transform="translate(34,14)"/>
<path d="M0 0 C1.32 0 2.64 0 4 0 C4 0.99 4 1.98 4 3 C6.31 3.33 8.62 3.66 11 4 C11 4.99 11 5.98 11 7 C4.64285714 6.51098901 4.64285714 6.51098901 1.5625 4.0625 C0 2 0 2 0 0 Z " fill="#DCDBDD" transform="translate(8,28)"/>
<path d="M0 0 C1.32 0.66 2.64 1.32 4 2 C4 3.98 4 5.96 4 8 C3.01 8.33 2.02 8.66 1 9 C-1 6 -1 6 -0.625 2.8125 C-0.41875 1.884375 -0.2125 0.95625 0 0 Z " fill="#C0BBBD" transform="translate(6,20)"/>
<path d="M0 0 C1.32 0 2.64 0 4 0 C4.33 1.98 4.66 3.96 5 6 C4.01 6.33 3.02 6.66 2 7 C1.34 6.67 0.68 6.34 0 6 C-0.6875 3.5 -0.6875 3.5 -1 1 C-0.67 0.67 -0.34 0.34 0 0 Z " fill="#B8B3B5" transform="translate(14,19)"/>
<path d="M0 0 C0.99 0.33 1.98 0.66 3 1 C3.3721042 2.32303717 3.70630173 3.65737935 4 5 C4.66 5.33 5.32 5.66 6 6 C6 7.98 6 9.96 6 12 C5.773125 11.46375 5.54625 10.9275 5.3125 10.375 C3.56617944 7.21499137 1.3597151 4.7323017 -1 2 C-0.67 1.34 -0.34 0.68 0 0 Z " fill="#3B1812" transform="translate(14,10)"/>
<path d="M0 0 C0.99 0 1.98 0 3 0 C3.95024979 3.69541586 3.95024979 6.30458414 3 10 C1.20762558 7.31143836 0.01553817 5.0466145 -1 2 C-0.67 1.34 -0.34 0.68 0 0 Z " fill="#553735" transform="translate(31,6)"/>
<path d="M0 0 C0 2.97 0 5.94 0 9 C-0.99 9.33 -1.98 9.66 -3 10 C-3 7 -3 4 -3 1 C-1 0 -1 0 0 0 Z " fill="#C1BABB" transform="translate(40,13)"/>
<path d="M0 0 C1.98 0 3.96 0 6 0 C5.67 0.99 5.34 1.98 5 3 C2.69 3.33 0.38 3.66 -2 4 C-1.34 2.68 -0.68 1.36 0 0 Z " fill="#DBD9DB" transform="translate(14,5)"/>
<path d="M0 0 C0.66 0.33 1.32 0.66 2 1 C1.67 1.66 1.34 2.32 1 3 C1.66 3.66 2.32 4.32 3 5 C2.34 5 1.68 5 1 5 C1 5.66 1 6.32 1 7 C0.34 7 -0.32 7 -1 7 C-1 6.34 -1 5.68 -1 5 C-1.99 4.67 -2.98 4.34 -4 4 C-4 3.34 -4 2.68 -4 2 C-2.68 2 -1.36 2 0 2 C0 1.34 0 0.68 0 0 Z " fill="#644A48" transform="translate(20,33)"/>
<path d="M0 0 C0.99 0.33 1.98 0.66 3 1 C3 3.31 3 5.62 3 8 C2.01 8 1.02 8 0 8 C0 7.34 0 6.68 0 6 C-0.66 6 -1.32 6 -2 6 C-2 5.34 -2 4.68 -2 4 C-1.34 4 -0.68 4 0 4 C0 2.68 0 1.36 0 0 Z " fill="#6B524F" transform="translate(2,15)"/>
<path d="M0 0 C3.37462715 0.54723683 5.08235 1.0549 8 3 C5.36 3.33 2.72 3.66 0 4 C0 2.68 0 1.36 0 0 Z " fill="#45241F" transform="translate(11,34)"/>
<path d="M0 0 C0.33 0 0.66 0 1 0 C1 3.3 1 6.6 1 10 C0.67 9.34 0.34 8.68 0 8 C-0.99 7.67 -1.98 7.34 -3 7 C-2.01 4.69 -1.02 2.38 0 0 Z " fill="#776264" transform="translate(10,14)"/>
<path d="M0 0 C-0.33 0.66 -0.66 1.32 -1 2 C-2.98 2 -4.96 2 -7 2 C-7 1.34 -7 0.68 -7 0 C-4.3333581 -1.33332095 -2.83319697 -0.67102033 0 0 Z " fill="#D8D6D8" transform="translate(28,38)"/>
<path d="M0 0 C2.31 0 4.62 0 7 0 C7 0.66 7 1.32 7 2 C2.25 3.125 2.25 3.125 0 2 C0 1.34 0 0.68 0 0 Z " fill="#D4D1D3" transform="translate(21,0)"/>
</svg>
